<svg id="Layer_1" data-name="Layer 1" xmlns="http://www.w3.org/2000/svg" viewBox="0 0 100.88 55.03"><defs><style>.cls-1{fill:#d2e5b3;}.cls-2{fill:#3d4752;}.cls-3{fill:none;stroke:#3d4752;stroke-miterlimit:10;stroke-width:0.9px;}</style></defs><title>erd-symbols</title><rect class="cls-1" width="100.88" height="55.03"/><polyline class="cls-2" points="41.37 29.32 44.36 29.32 44.36 29.68 44.36 30.04 40.56 30.04 40.56 27.17 40.56 24.3 44.24 24.3 44.24 24.65 44.24 25.01 41.37 25.01 41.37 25.86 41.37 26.72 44.07 26.72 44.07 27.07 44.07 27.41 41.37 27.41 41.37 28.37 41.37 29.32"/><path class="cls-2" d="M45.39,30c0-1.28,0-2.61,0-3.84h.72c0,.16,0,.45,0,.63h0a1.34,1.34,0,0,1,1.25-.74c1,0,1.43.61,1.43,1.56V30h-.76V27.91c0-.68-.19-1.17-.87-1.17s-1,.57-1,1.26v2h-.76"/><path class="cls-2" d="M51.33,30.1c-.75,0-1.13-.43-1.12-1.2V26.82h-.74V26.2h.74V25.1H51v1.1h1v.62H51v2c0,.44.13.64.54.65a1.09,1.09,0,0,0,.45-.1L52,30a1.94,1.94,0,0,1-.65.11"/><path class="cls-2" d="M53.16,24.32a.5.5,0,0,1,.51.49.51.51,0,1,1-.51-.49M53.54,30h-.76V26.2h.76V30Z"/><path class="cls-2" d="M56.09,30.1c-.75,0-1.13-.43-1.12-1.2V26.82h-.74V26.2H55V25.1h.75v1.1h1v.62h-1v2c0,.44.13.64.54.65a1.09,1.09,0,0,0,.45-.1l0,.62a1.94,1.94,0,0,1-.65.11"/><path class="cls-2" d="M57.8,26.2c.41,1,.78,2,1.21,3l1.06-3h.81L59,30.94a1.4,1.4,0,0,1-1.83,1l.07-.67a.79.79,0,0,0,.83-.1A4.73,4.73,0,0,0,58.59,30L56.95,26.2h.85"/><polygon class="cls-1" points="50.44 0.52 99.94 27.52 50.44 54.52 0.94 27.52 50.44 0.52"/><polygon class="cls-3" points="50.44 0.52 99.94 27.52 50.44 54.52 0.94 27.52 50.44 0.52"/><path class="cls-2" d="M19.74,27.92h2.15l-1.07-2.69M18.88,30H18l2.49-5.73h.73L23.67,30h-.91l-.58-1.41H19.46Z"/><path class="cls-2" d="M24.23,27.72c-.5-1.26.95-2,2.14-1.47a1.3,1.3,0,0,1,.6.47l-.53.45a1,1,0,0,0-.89-.48c-.38,0-.71.12-.71.5,0,.59.92.51,1.39.73a1.08,1.08,0,0,1,.78,1c.06,1.56-2.45,1.51-3.08.55l.54-.46a1.24,1.24,0,0,0,1,.53c.42,0,.76-.14.76-.56,0-.73-1.27-.51-1.76-.95a.84.84,0,0,1-.26-.3"/><path class="cls-2" d="M27.83,27.72c-.5-1.26.95-2,2.14-1.47a1.3,1.3,0,0,1,.6.47l-.53.45a1,1,0,0,0-.89-.48c-.38,0-.71.12-.71.5,0,.59.92.51,1.39.73a1.08,1.08,0,0,1,.78,1c.06,1.56-2.45,1.51-3.08.55l.54-.46a1.24,1.24,0,0,0,1,.53c.42,0,.76-.14.76-.56,0-.73-1.27-.51-1.76-.95a.84.84,0,0,1-.26-.3"/><path class="cls-2" d="M33.37,29.5a1.24,1.24,0,0,0,1.28-1.39,1.28,1.28,0,1,0-2.56,0,1.24,1.24,0,0,0,1.28,1.39m0-3.41a2,2,0,1,1,0,4,2,2,0,1,1,0-4Z"/><path class="cls-2" d="M36.25,28.12a1.88,1.88,0,0,1,2-2,1.82,1.82,0,0,1,1.44.63l-.55.45a1.05,1.05,0,0,0-.88-.44,1.24,1.24,0,0,0-1.26,1.39,1.24,1.24,0,0,0,1.26,1.39,1.1,1.1,0,0,0,.92-.42l.51.46a1.77,1.77,0,0,1-1.43.6,1.9,1.9,0,0,1-2.07-2"/><path class="cls-2" d="M40.89,24.32a.5.5,0,0,1,.51.49.51.51,0,1,1-.51-.49M41.27,30h-.76V26.2h.76V30Z"/><path class="cls-2" d="M43.88,29.53A1.09,1.09,0,0,0,45,28.21c-.83,0-1.9,0-1.9.73,0,.44.35.59.79.6M42.32,29c0-1.24,1.4-1.26,2.67-1.3,0-.65-.35-.95-.95-.95a1.6,1.6,0,0,0-1.09.45l-.4-.49a2.26,2.26,0,0,1,1.57-.58,1.42,1.42,0,0,1,1.6,1.51A23.93,23.93,0,0,0,45.78,30h-.69a2.56,2.56,0,0,1-.06-.55h0a1.47,1.47,0,0,1-1.29.65C42.92,30.13,42.32,29.77,42.32,29Z"/><path class="cls-2" d="M48.13,30.1c-.75,0-1.13-.43-1.12-1.2V26.82h-.74V26.2H47V25.1h.75v1.1h1v.62h-1v2c0,.44.13.64.54.65a1.09,1.09,0,0,0,.45-.1l0,.62a1.94,1.94,0,0,1-.65.11"/><path class="cls-2" d="M50,24.32a.5.5,0,0,1,.51.49.51.51,0,1,1-.51-.49M50.34,30h-.76V26.2h.76V30Z"/><path class="cls-2" d="M53.48,30h-.83L51.09,26.2h.84c.38,1,.74,2,1.14,3l1.13-3H55"/><path class="cls-2" d="M57.49,26.09c1.3,0,1.9.87,1.84,2.25h-3a1.2,1.2,0,0,0,1.25,1.17,1.28,1.28,0,0,0,1.12-.58l.53.43a1.92,1.92,0,0,1-1.65.79,1.86,1.86,0,0,1-2-2,1.86,1.86,0,0,1,2-2m1.08,1.68a1.07,1.07,0,0,0-1.54-1,1.12,1.12,0,0,0-.75,1Z"/><polyline class="cls-2" points="63.28 29.32 66.28 29.32 66.28 29.68 66.28 30.04 62.48 30.04 62.48 27.17 62.48 24.3 66.16 24.3 66.16 24.65 66.16 25.01 63.28 25.01 63.28 25.86 63.28 26.72 65.99 26.72 65.99 27.07 65.99 27.41 63.28 27.41 63.28 28.37 63.28 29.32"/><path class="cls-2" d="M67.31,30c0-1.28,0-2.61,0-3.84H68c0,.16,0,.45,0,.63h0a1.34,1.34,0,0,1,1.25-.74c1,0,1.43.61,1.43,1.56V30H70V27.91c0-.68-.19-1.17-.87-1.17s-1,.57-1,1.26v2h-.76"/><path class="cls-2" d="M73.24,30.1c-.75,0-1.13-.43-1.12-1.2V26.82h-.74V26.2h.74V25.1h.75v1.1h1v.62h-1v2c0,.44.13.64.54.65a1.09,1.09,0,0,0,.45-.1l0,.62a1.94,1.94,0,0,1-.65.11"/><path class="cls-2" d="M75.07,24.32a.5.5,0,0,1,.51.49.51.51,0,1,1-.51-.49M75.45,30h-.76V26.2h.76V30Z"/><path class="cls-2" d="M78,30.1c-.75,0-1.13-.43-1.12-1.2V26.82h-.74V26.2h.74V25.1h.75v1.1h1v.62h-1v2c0,.44.13.64.54.65a1.09,1.09,0,0,0,.45-.1l0,.62a1.94,1.94,0,0,1-.65.11"/><path class="cls-2" d="M79.72,26.2c.41,1,.78,2,1.21,3l1.06-3h.81l-1.86,4.75a1.4,1.4,0,0,1-1.83,1l.07-.67a.79.79,0,0,0,.83-.1A4.73,4.73,0,0,0,80.51,30L78.86,26.2h.85"/></svg>