<svg id="Layer_1" data-name="Layer 1" xmlns="http://www.w3.org/2000/svg" viewBox="0 0 72 54"><defs><style>.cls-1{fill:#d2e5b3;}.cls-2{fill:#3d4752;}</style></defs><title>erd-symbols</title><polygon class="cls-1" points="36 0 72 27 36 54 0 27 36 0"/><path class="cls-2" d="M16.77,25.37c0-1-1.21-.91-2.27-.91V26.3c1.06,0,2.27.11,2.27-.92m.81,0a1.53,1.53,0,0,1-1.39,1.51l1.6,2.63h-1L15.36,27H14.5v2.55h-.8V23.79C15.52,23.78,17.58,23.53,17.58,25.37Z"/><path class="cls-2" d="M20.27,25.58c1.3,0,1.9.87,1.84,2.25h-3A1.2,1.2,0,0,0,20.31,29a1.28,1.28,0,0,0,1.12-.58l.53.43a1.92,1.92,0,0,1-1.65.79,1.86,1.86,0,0,1-2-2,1.86,1.86,0,0,1,2-2m1.08,1.68a1.07,1.07,0,0,0-1.54-1,1.12,1.12,0,0,0-.75,1Z"/><polyline class="cls-2" points="23.96 29.52 23.2 29.52 23.2 26.46 23.2 23.4 23.96 23.4 23.96 26.46 23.96 29.52"/><path class="cls-2" d="M26.56,29a1.09,1.09,0,0,0,1.11-1.33c-.83,0-1.9,0-1.9.73,0,.44.35.59.79.6M25,28.43c0-1.24,1.4-1.26,2.67-1.3,0-.65-.35-.95-.95-.95a1.6,1.6,0,0,0-1.09.45l-.4-.49a2.26,2.26,0,0,1,1.57-.58,1.42,1.42,0,0,1,1.6,1.51,23.93,23.93,0,0,0,.06,2.44h-.69a2.56,2.56,0,0,1-.06-.55h0a1.47,1.47,0,0,1-1.29.65C25.6,29.62,25,29.25,25,28.43Z"/><path class="cls-2" d="M30.82,29.58c-.75,0-1.13-.43-1.12-1.2V26.3H29v-.62h.74v-1.1h.75v1.1h1v.62h-1v2c0,.44.13.64.54.65a1.09,1.09,0,0,0,.45-.1l0,.62a1.94,1.94,0,0,1-.65.11"/><path class="cls-2" d="M32.65,23.8a.5.5,0,0,1,.51.49.51.51,0,1,1-.51-.49M33,29.52h-.76V25.68H33v3.84Z"/><path class="cls-2" d="M36.17,29a1.24,1.24,0,0,0,1.28-1.39,1.28,1.28,0,1,0-2.56,0A1.24,1.24,0,0,0,36.17,29m0-3.41a2,2,0,1,1-2.07,2A1.9,1.9,0,0,1,36.17,25.58Z"/><path class="cls-2" d="M39.3,29.52c0-1.28,0-2.61,0-3.84H40c0,.16,0,.45,0,.63h0a1.34,1.34,0,0,1,1.25-.74c1,0,1.43.61,1.43,1.56v2.38H42V27.39c0-.68-.19-1.17-.87-1.17s-1,.57-1,1.26v2H39.3"/><path class="cls-2" d="M43.87,27.2c-.5-1.26.95-2,2.14-1.47a1.3,1.3,0,0,1,.6.47l-.53.45a1,1,0,0,0-.89-.48c-.38,0-.71.12-.71.5,0,.59.92.51,1.39.73a1.08,1.08,0,0,1,.78,1c.06,1.56-2.45,1.51-3.08.55l.54-.46a1.24,1.24,0,0,0,1,.53c.42,0,.76-.14.76-.56,0-.73-1.27-.51-1.76-.95a.84.84,0,0,1-.26-.3"/><path class="cls-2" d="M49.42,26.22c-.65,0-1,.57-1,1.26v2h-.76V23.4h.76c0,.95,0,1.94,0,2.87a1.35,1.35,0,0,1,1.21-.69,1.37,1.37,0,0,1,1.43,1.56v2.38h-.76V27.4c0-.67-.19-1.17-.87-1.17"/><path class="cls-2" d="M52.73,23.8a.5.5,0,0,1,.51.49.51.51,0,1,1-.51-.49m.38,5.72h-.76V25.68h.76v3.84Z"/><path class="cls-2" d="M56.45,29a1.24,1.24,0,0,0,1.28-1.39,1.23,1.23,0,0,0-1.28-1.39,1.39,1.39,0,0,0,0,2.78m.13.64a1.59,1.59,0,0,1-1.35-.68h0v2.52h-.76V25.68h.75v.6h0a1.54,1.54,0,0,1,1.39-.7,1.85,1.85,0,0,1,1.92,2A1.84,1.84,0,0,1,56.57,29.63Z"/></svg>