<svg id="Layer_1" data-name="Layer 1" xmlns="http://www.w3.org/2000/svg" viewBox="0 0 85.28 63.95"><defs><style>.cls-1{fill:#d2e5b3;}.cls-2{fill:#3d4752;}.cls-3{fill:none;stroke:#3d4752;stroke-miterlimit:10;stroke-width:0.9px;}</style></defs><title>erd-symbols</title><polygon class="cls-1" points="42.62 0 85.28 31.95 42.62 63.95 0 31.95 42.62 0"/><path class="cls-2" d="M31.54,31.87c0-1.46-.95-2.13-2.4-2.17h-1V34h1c1.44,0,2.4-.72,2.4-2.16M29.31,29c1.84.09,3.09,1,3.09,2.87a2.67,2.67,0,0,1-2,2.69,12,12,0,0,1-3.07.18V29Z"/><path class="cls-2" d="M35.19,30.8c1.3,0,1.9.87,1.84,2.25H34a1.2,1.2,0,0,0,1.25,1.17,1.28,1.28,0,0,0,1.12-.58l.53.43a1.92,1.92,0,0,1-1.65.79,1.86,1.86,0,0,1-2-2,1.86,1.86,0,0,1,2-2m1.08,1.68a1.07,1.07,0,0,0-1.54-1,1.12,1.12,0,0,0-.75,1Z"/><path class="cls-2" d="M37.85,32.82a1.88,1.88,0,0,1,2-2,1.82,1.82,0,0,1,1.44.63l-.55.45a1.05,1.05,0,0,0-.88-.44,1.39,1.39,0,0,0,0,2.77,1.1,1.1,0,0,0,.92-.42l.51.46a1.77,1.77,0,0,1-1.43.6,1.9,1.9,0,0,1-2.07-2"/><path class="cls-2" d="M42.49,29a.5.5,0,0,1,.51.49.51.51,0,1,1-.51-.49m.38,5.72h-.76V30.9h.76v3.84Z"/><path class="cls-2" d="M44.06,32.42c-.5-1.26.95-2,2.14-1.47a1.3,1.3,0,0,1,.6.47l-.53.45a1,1,0,0,0-.89-.48c-.38,0-.71.12-.71.5,0,.59.92.51,1.39.73a1.08,1.08,0,0,1,.78,1c.06,1.56-2.45,1.51-3.08.55l.54-.46a1.24,1.24,0,0,0,1,.53c.42,0,.76-.14.76-.56,0-.73-1.27-.51-1.76-.95a.84.84,0,0,1-.26-.3"/><path class="cls-2" d="M48.19,29a.5.5,0,0,1,.51.49.51.51,0,1,1-.51-.49m.38,5.72h-.76V30.9h.76v3.84Z"/><path class="cls-2" d="M51.71,34.21a1.39,1.39,0,1,0-1.28-1.39,1.24,1.24,0,0,0,1.28,1.39m0-3.41a2,2,0,1,1-2.07,2A1.9,1.9,0,0,1,51.71,30.8Z"/><path class="cls-2" d="M54.84,34.74c0-1.28,0-2.61,0-3.84h.72c0,.16,0,.45,0,.63h0a1.34,1.34,0,0,1,1.25-.74c1,0,1.43.61,1.43,1.56v2.38H57.5V32.61c0-.68-.19-1.17-.87-1.17s-1,.57-1,1.26v2h-.76"/><polygon class="cls-1" points="42.62 7.38 75.78 32.22 42.62 57.06 9.49 32.22 42.62 7.38"/><polygon class="cls-3" points="42.62 7.38 75.78 32.22 42.62 57.06 9.49 32.22 42.62 7.38"/><path class="cls-2" d="M33.3,18.07c.43,1.51.83,3.07,1.28,4.57l1.34-4.57h.88c.45,1.51.87,3.07,1.35,4.57l1.26-4.57h.85L38.59,23.8h-.83c-.47-1.53-.92-3.09-1.41-4.61L35,23.8h-.83l-1.68-5.73h.87"/><path class="cls-2" d="M42.46,19.86c1.3,0,1.9.87,1.84,2.25h-3a1.2,1.2,0,0,0,1.25,1.17,1.28,1.28,0,0,0,1.12-.58l.53.43a1.92,1.92,0,0,1-1.65.79,1.86,1.86,0,0,1-2-2,1.86,1.86,0,0,1,2-2m1.08,1.68a1.07,1.07,0,0,0-1.54-1,1.12,1.12,0,0,0-.75,1Z"/><path class="cls-2" d="M46.59,23.3A1.09,1.09,0,0,0,47.7,22c-.83,0-1.9,0-1.9.73,0,.44.35.59.79.6M45,22.72c0-1.24,1.4-1.26,2.67-1.3,0-.65-.35-.95-.95-.95a1.6,1.6,0,0,0-1.09.45l-.4-.49a2.26,2.26,0,0,1,1.57-.58,1.42,1.42,0,0,1,1.6,1.51,23.93,23.93,0,0,0,.06,2.44H47.8a2.56,2.56,0,0,1-.06-.55h0a1.47,1.47,0,0,1-1.29.65C45.63,23.9,45,23.54,45,22.72Z"/><polyline class="cls-2" points="50.48 21.63 50.51 21.63 52.12 19.97 53.14 19.97 51.34 21.71 53.29 23.8 52.24 23.8 50.51 21.81 50.48 21.81 50.48 22.81 50.48 23.8 49.72 23.8 49.72 20.74 49.72 17.68 50.48 17.68 50.48 19.66 50.48 21.63"/><path class="cls-2" d="M30.09,30.73c0-1-1.21-.91-2.27-.91v1.83c1.06,0,2.27.11,2.27-.92m.81,0a1.53,1.53,0,0,1-1.39,1.51l1.6,2.63h-1l-1.46-2.55h-.86v2.55H27V29.14C28.84,29.13,30.9,28.89,30.9,30.73Z"/><path class="cls-2" d="M33.59,30.93c1.3,0,1.9.87,1.84,2.25h-3a1.2,1.2,0,0,0,1.25,1.17,1.28,1.28,0,0,0,1.12-.58l.53.43a1.92,1.92,0,0,1-1.65.79,1.86,1.86,0,0,1-2-2,1.86,1.86,0,0,1,2-2m1.08,1.68a1.07,1.07,0,0,0-1.54-1,1.12,1.12,0,0,0-.75,1Z"/><polyline class="cls-2" points="37.28 34.88 36.52 34.88 36.52 31.81 36.52 28.75 37.28 28.75 37.28 31.81 37.28 34.88"/><path class="cls-2" d="M39.88,34.37A1.09,1.09,0,0,0,41,33c-.83,0-1.9,0-1.9.73,0,.44.35.59.79.6m-1.56-.58c0-1.24,1.4-1.26,2.67-1.3,0-.65-.35-.95-.95-.95A1.6,1.6,0,0,0,39,32l-.4-.49a2.26,2.26,0,0,1,1.57-.58,1.42,1.42,0,0,1,1.6,1.51,23.93,23.93,0,0,0,.06,2.44h-.69a2.56,2.56,0,0,1-.06-.55h0a1.47,1.47,0,0,1-1.29.65C38.92,35,38.32,34.61,38.32,33.79Z"/><path class="cls-2" d="M44.14,34.94c-.75,0-1.13-.43-1.12-1.2V31.66h-.74V31H43v-1.1h.75V31h1v.62h-1v2c0,.44.13.64.54.65a1.09,1.09,0,0,0,.45-.1l0,.62a1.94,1.94,0,0,1-.65.11"/><path class="cls-2" d="M46,29.16a.5.5,0,0,1,.51.49.51.51,0,1,1-.51-.49m.38,5.72h-.76V31h.76v3.84Z"/><path class="cls-2" d="M49.49,34.34a1.39,1.39,0,1,0-1.28-1.39,1.24,1.24,0,0,0,1.28,1.39m0-3.41a2,2,0,1,1-2.07,2A1.9,1.9,0,0,1,49.49,30.93Z"/><path class="cls-2" d="M52.62,34.87c0-1.28,0-2.61,0-3.84h.72c0,.16,0,.45,0,.63h0a1.34,1.34,0,0,1,1.25-.74c1,0,1.43.61,1.43,1.56v2.38h-.76V32.74c0-.68-.19-1.17-.87-1.17s-1,.57-1,1.26v2h-.76"/><polyline class="cls-2" points="58.91 33.22 57.03 33.22 57.03 32.9 57.03 32.58 58.91 32.58 58.91 32.9 58.91 33.22"/><path class="cls-2" d="M35.57,43.58c-.5-1.26.95-2,2.14-1.47a1.3,1.3,0,0,1,.6.47l-.53.45a1,1,0,0,0-.89-.48c-.38,0-.71.12-.71.5,0,.59.92.51,1.39.73a1.08,1.08,0,0,1,.78,1c.06,1.56-2.45,1.51-3.08.55l.54-.46a1.24,1.24,0,0,0,1,.53c.42,0,.76-.14.76-.56,0-.73-1.27-.51-1.76-.95a.84.84,0,0,1-.26-.3"/><path class="cls-2" d="M41.12,42.6c-.65,0-1,.57-1,1.26v2h-.76V39.78h.76c0,.95,0,1.94,0,2.87A1.35,1.35,0,0,1,41.32,42a1.37,1.37,0,0,1,1.43,1.56V45.9H42V43.78c0-.67-.19-1.17-.87-1.17"/><path class="cls-2" d="M44.43,40.18a.5.5,0,0,1,.51.49.51.51,0,1,1-.51-.49m.38,5.72H44V42.06h.76V45.9Z"/><path class="cls-2" d="M48.14,45.37a1.39,1.39,0,0,0,0-2.78,1.39,1.39,0,0,0,0,2.78m.13.64a1.59,1.59,0,0,1-1.35-.68h0v2.52h-.76V42.06h.75v.6h0a1.54,1.54,0,0,1,1.39-.7,2,2,0,0,1,0,4Z"/></svg>