<svg id="Layer_1" data-name="Layer 1" xmlns="http://www.w3.org/2000/svg" viewBox="0 0 99 54"><defs><style>.cls-1{fill:#d2e5b3;}.cls-2{fill:#3d4752;}</style></defs><title>erd-symbols</title><rect class="cls-1" width="99" height="54"/><polyline class="cls-2" points="40.42 28.81 43.42 28.81 43.42 29.16 43.42 29.52 39.62 29.52 39.62 26.65 39.62 23.79 43.3 23.79 43.3 24.14 43.3 24.49 40.42 24.49 40.42 25.35 40.42 26.21 43.13 26.21 43.13 26.55 43.13 26.9 40.42 26.9 40.42 27.85 40.42 28.81"/><path class="cls-2" d="M44.45,29.52c0-1.28,0-2.61,0-3.84h.72c0,.16,0,.45,0,.63h0a1.34,1.34,0,0,1,1.25-.74c1,0,1.43.61,1.43,1.56v2.38h-.76V27.39c0-.68-.19-1.17-.87-1.17s-1,.57-1,1.26v2h-.76"/><path class="cls-2" d="M50.39,29.58c-.75,0-1.13-.43-1.12-1.2V26.3h-.74v-.62h.74v-1.1H50v1.1h1v.62H50v2c0,.44.13.64.54.65a1.09,1.09,0,0,0,.45-.1l0,.62a1.94,1.94,0,0,1-.65.11"/><path class="cls-2" d="M52.22,23.8a.5.5,0,0,1,.51.49.51.51,0,1,1-.51-.49m.38,5.72h-.76V25.68h.76v3.84Z"/><path class="cls-2" d="M55.15,29.58c-.75,0-1.13-.43-1.12-1.2V26.3h-.74v-.62H54v-1.1h.75v1.1h1v.62h-1v2c0,.44.13.64.54.65a1.09,1.09,0,0,0,.45-.1l0,.62a1.94,1.94,0,0,1-.65.11"/><path class="cls-2" d="M56.86,25.68c.41,1,.78,2,1.21,3l1.06-3h.81l-1.86,4.75a1.4,1.4,0,0,1-1.83,1l.07-.67a.79.79,0,0,0,.83-.1,4.73,4.73,0,0,0,.51-1.12L56,25.68h.85"/></svg>