<svg id="Layer_1" data-name="Layer 1" xmlns="http://www.w3.org/2000/svg" viewBox="0 0 99.9 54.9"><defs><style>.cls-1{fill:#d2e5b3;}.cls-2,.cls-4{fill:none;stroke-miterlimit:10;stroke-width:0.9px;}.cls-2{stroke:#000;opacity:0;}.cls-3{fill:#3d4752;}.cls-4{stroke:#3d4752;}</style></defs><title>erd-symbols</title><rect class="cls-1" x="0.45" y="0.45" width="99" height="54"/><rect class="cls-2" x="0.45" y="0.45" width="99" height="54"/><path class="cls-3" d="M39.6,25.83c0-1-1.15-.92-2.19-.92v1.85c1,0,2.19.09,2.19-.94m.81,0c0,1.51-1.39,1.69-3,1.62V30h-.8V24.24h1.75C39.55,24.25,40.41,24.65,40.41,25.83Z"/><path class="cls-3" d="M41,30c0-1.28,0-2.61,0-3.84h.72c0,.16,0,.48,0,.65h0a1.3,1.3,0,0,1,1.47-.72l0,.7A1.1,1.1,0,0,0,41.77,28v2H41"/><path class="cls-3" d="M45.61,29.44A1.24,1.24,0,0,0,46.89,28a1.28,1.28,0,1,0-2.56,0,1.24,1.24,0,0,0,1.28,1.39m0-3.41a2,2,0,1,1-2.07,2A1.9,1.9,0,0,1,45.61,26Z"/><path class="cls-3" d="M48.49,28.05a1.88,1.88,0,0,1,2-2,1.82,1.82,0,0,1,1.44.63l-.55.45a1.05,1.05,0,0,0-.88-.44,1.24,1.24,0,0,0-1.26,1.39,1.24,1.24,0,0,0,1.26,1.39,1.1,1.1,0,0,0,.92-.42l.51.46a1.77,1.77,0,0,1-1.43.6,1.9,1.9,0,0,1-2.07-2"/><path class="cls-3" d="M54.48,26c1.3,0,1.9.87,1.84,2.25h-3a1.2,1.2,0,0,0,1.25,1.17,1.28,1.28,0,0,0,1.12-.58l.53.43a1.92,1.92,0,0,1-1.65.79,1.86,1.86,0,0,1-2-2,1.86,1.86,0,0,1,2-2m1.08,1.68a1.07,1.07,0,0,0-1.54-1,1.12,1.12,0,0,0-.75,1Z"/><path class="cls-3" d="M57.25,27.65c-.5-1.26.95-2,2.14-1.47a1.3,1.3,0,0,1,.6.47l-.53.45a1,1,0,0,0-.89-.48c-.38,0-.71.12-.71.5,0,.59.92.51,1.39.73a1.08,1.08,0,0,1,.78,1c.06,1.56-2.45,1.51-3.08.55l.54-.46a1.24,1.24,0,0,0,1,.53c.42,0,.76-.14.76-.56,0-.73-1.27-.51-1.76-.95a.84.84,0,0,1-.26-.3"/><path class="cls-3" d="M60.84,27.65c-.5-1.26.95-2,2.14-1.47a1.3,1.3,0,0,1,.6.47l-.53.45a1,1,0,0,0-.89-.48c-.38,0-.71.12-.71.5,0,.59.92.51,1.39.73a1.08,1.08,0,0,1,.78,1c.06,1.56-2.45,1.51-3.08.55l.54-.46a1.24,1.24,0,0,0,1,.53c.42,0,.76-.14.76-.56,0-.73-1.27-.51-1.76-.95a.84.84,0,0,1-.26-.3"/><rect class="cls-1" x="6.43" y="6.43" width="87.3" height="42.03"/><rect class="cls-4" x="6.43" y="6.43" width="87.3" height="42.03"/><path class="cls-3" d="M29,24.42c.43,1.51.83,3.07,1.28,4.57l1.34-4.57h.88c.45,1.51.87,3.07,1.35,4.57l1.26-4.57H36l-1.68,5.73h-.83c-.47-1.53-.92-3.09-1.41-4.61l-1.39,4.61H29.8l-1.68-5.73H29"/><path class="cls-3" d="M38.14,26.21c1.3,0,1.9.87,1.84,2.25h-3a1.2,1.2,0,0,0,1.25,1.17A1.28,1.28,0,0,0,39.29,29l.53.43a1.92,1.92,0,0,1-1.65.79,1.86,1.86,0,0,1-2-2,1.86,1.86,0,0,1,2-2m1.08,1.68a1.07,1.07,0,0,0-1.54-1,1.12,1.12,0,0,0-.75,1Z"/><path class="cls-3" d="M42.27,29.65a1.09,1.09,0,0,0,1.11-1.33c-.83,0-1.9,0-1.9.73,0,.44.35.59.79.6m-1.56-.58c0-1.24,1.4-1.26,2.67-1.3,0-.65-.35-.95-.95-.95a1.6,1.6,0,0,0-1.09.45l-.4-.49a2.26,2.26,0,0,1,1.57-.58,1.42,1.42,0,0,1,1.6,1.51,23.93,23.93,0,0,0,.06,2.44h-.69a2.56,2.56,0,0,1-.06-.55h0a1.47,1.47,0,0,1-1.29.65C41.31,30.25,40.71,29.88,40.71,29.06Z"/><polyline class="cls-3" points="46.16 27.98 46.19 27.98 47.8 26.31 48.82 26.31 47.02 28.05 48.97 30.15 47.92 30.15 46.19 28.16 46.16 28.16 46.16 29.15 46.16 30.15 45.4 30.15 45.4 27.09 45.4 24.03 46.16 24.03 46.16 26 46.16 27.98"/><polyline class="cls-3" points="52.53 29.44 55.53 29.44 55.53 29.79 55.53 30.15 51.73 30.15 51.73 27.28 51.73 24.41 55.4 24.41 55.4 24.77 55.4 25.12 52.53 25.12 52.53 25.98 52.53 26.84 55.23 26.84 55.23 27.18 55.23 27.53 52.53 27.53 52.53 28.48 52.53 29.44"/><path class="cls-3" d="M56.55,30.15c0-1.28,0-2.61,0-3.84h.72c0,.16,0,.45,0,.63h0a1.34,1.34,0,0,1,1.25-.74c1,0,1.43.61,1.43,1.56v2.38h-.76V28c0-.68-.19-1.17-.87-1.17s-1,.57-1,1.26v2h-.76"/><path class="cls-3" d="M62.49,30.21c-.75,0-1.13-.43-1.12-1.2V26.93h-.74v-.62h.74v-1.1h.75v1.1h1v.62h-1v2c0,.44.13.64.54.65a1.09,1.09,0,0,0,.45-.1l0,.62a1.94,1.94,0,0,1-.65.11"/><path class="cls-3" d="M64.32,24.43a.5.5,0,0,1,.51.49.51.51,0,1,1-.51-.49m.38,5.72h-.76V26.31h.76v3.84Z"/><path class="cls-3" d="M67.25,30.21c-.75,0-1.13-.43-1.12-1.2V26.93H65.4v-.62h.74v-1.1h.75v1.1h1v.62h-1v2c0,.44.13.64.54.65a1.09,1.09,0,0,0,.45-.1l0,.62a1.94,1.94,0,0,1-.65.11"/><path class="cls-3" d="M69,26.31c.41,1,.78,2,1.21,3l1.06-3H72l-1.86,4.75a1.4,1.4,0,0,1-1.83,1l.07-.67a.79.79,0,0,0,.83-.1,4.73,4.73,0,0,0,.51-1.12l-1.64-3.84H69"/></svg>